<?xml version="1.0" encoding="UTF-8"?>
<svg width="40px" height="40px" viewBox="0 0 212 800" version="1.1" xmlns="http://www.w3.org/2000/svg" xmlns:xlink="http://www.w3.org/1999/xlink">
    <!-- Generator: Sketch 47.1 (45422) - http://www.bohemiancoding.com/sketch -->
    <title>Maps/Markers/fk-map-icon-truck/blue</title>
    <desc>Created with Sketch.</desc>
    <defs>
        <path d="M19.6339548,81.2563718 C19.6339548,81.2563718 8.50245763,78.0629685 4.70711864,71.6116942 C0.928248588,65.1604198 -1.24115819,31.5607196 1.04053672,21.916042 C3.30426554,12.2398801 13.8129379,0.103448276 13.8129379,0.103448276 L19.6339548,81.2563718 L19.6339548,81.2563718 Z" id="path-1"></path>
        <linearGradient x1="49.9984457%" y1="100.229082%" x2="49.9984457%" y2="2.404708%" id="linearGradient-3">
            <stop stop-color="#616161" offset="0%"></stop>
            <stop stop-color="#070808" offset="100%"></stop>
        </linearGradient>
        <path d="M0.0119774011,0.0059970015 C0.0119774011,0.0059970015 0.616836158,31.8155922 3.44050847,37.9475262 C6.22974576,44.047976 10.8230791,45.3253373 10.8230791,45.3253373 C10.8230791,45.3253373 9.77056497,26.9610195 0.0119774011,0.0059970015 Z" id="path-4"></path>
        <path d="M0.137740113,81.2563718 C0.137740113,81.2563718 11.2362994,78.0629685 15.0316384,71.6116942 C18.8254802,65.1604198 20.9963842,31.5607196 18.7311582,21.916042 C16.4659322,12.2398801 5.97223164,0.103448276 5.97223164,0.103448276 L0.137740113,81.2563718 L0.137740113,81.2563718 Z" id="path-6"></path>
        <path d="M10.9263842,0.0059970015 C10.9263842,0.0059970015 10.2885876,31.8155922 7.48138418,37.9475262 C4.67418079,44.047976 0.0823446328,45.3253373 0.0823446328,45.3253373 C0.0823446328,45.3253373 1.13485876,26.9610195 10.9263842,0.0059970015 Z" id="path-8"></path>
        <path d="M0.359322034,5.12143928 C-0.69319209,8.1874063 1.8909322,10.2638681 5.5889548,10.2638681 C9.3229096,10.2638681 16.5931921,6.17541229 17.7100847,4.19490255 C18.8254802,2.18290855 18.1248023,0.139430285 18.1248023,0.139430285 C15.9239548,3.94002999 4.02740113,8.15592204 0.359322034,5.12143928 L0.359322034,5.12143928 Z" id="path-10"></path>
        <linearGradient x1="5.58072175%" y1="80.5123649%" x2="104.094769%" y2="31.6814749%" id="linearGradient-12">
            <stop stop-color="#828484" offset="0%"></stop>
            <stop stop-color="#C5C2C1" offset="100%"></stop>
        </linearGradient>
        <path d="M18.0634181,5.12143928 C19.1009605,8.1874063 16.5333051,10.2638681 12.8158192,10.2638681 C9.10132768,10.2638681 1.82954802,6.17541229 0.712655367,4.19490255 C-0.404237288,2.18290855 0.297937853,0.139430285 0.297937853,0.139430285 C2.48381356,3.94002999 14.395339,8.15592204 18.0634181,5.12143928 L18.0634181,5.12143928 Z" id="path-13"></path>
        <linearGradient x1="94.4201579%" y1="80.4975566%" x2="-4.08412115%" y2="31.6829557%" id="linearGradient-15">
            <stop stop-color="#828484" offset="0%"></stop>
            <stop stop-color="#C5C2C1" offset="100%"></stop>
        </linearGradient>
        <path d="M71.7191808,3.06446777 C122.109605,3.06446777 143.382966,0.0629685157 143.382966,0.0629685157 C143.382966,0.0629685157 140.575763,15.2338831 135.34613,30.4347826 C130.116497,45.6056972 124.120311,54.6446777 122.397062,55.8890555 C120.64387,57.1664168 96.2129661,60.3283358 71.7191808,60.3283358 C47.2238983,60.3283358 22.7630508,57.1664168 21.0398023,55.8890555 C19.3180508,54.6446777 13.3053955,45.6056972 8.07576271,30.4347826 C2.89254237,15.2338831 0.0389265537,0.0629685157 0.0389265537,0.0629685157 C0.0389265537,0.0629685157 21.3272599,3.06446777 71.7191808,3.06446777 L71.7191808,3.06446777 Z" id="path-16"></path>
        <path d="M42.9734181,0.935532234 C73.080113,0.935532234 85.8046045,0.00899550225 85.8046045,0.00899550225 C85.8046045,0.00899550225 84.689209,13.6461769 81.5631073,27.9235382 C78.4370056,42.2308846 75.1207627,52.2593703 74.0682486,53.4407796 C73.0157345,54.6551724 57.6112994,56.7301349 42.9734181,56.7301349 C28.3325424,56.7301349 12.8966667,54.6551724 11.8755932,53.4407796 C10.8245763,52.2593703 7.49186441,42.2308846 4.36576271,27.9235382 C1.27110169,13.6461769 0.139237288,0.00899550225 0.139237288,0.00899550225 C0.139237288,0.00899550225 12.865226,0.935532234 42.9734181,0.935532234 L42.9734181,0.935532234 Z" id="path-18"></path>
        <linearGradient x1="50.0017477%" y1="99.6854598%" x2="50.0017477%" y2="1.40697275%" id="linearGradient-20">
            <stop stop-color="#454545" offset="0%"></stop>
            <stop stop-color="#050505" offset="100%"></stop>
        </linearGradient>
        <path d="M2.21581921,13.1574213 C1.75319209,11.113943 0.429689266,3.64017991 0.11079096,1.62818591 C-0.145225989,0.127436282 0.84440678,-0.350824588 1.80110169,0.574212894 C3.4270339,2.04347826 11.9279944,11.88006 12.8038418,13.7016492 C13.3787571,14.946027 12.8352825,15.7451274 11.2093503,15.6806597 C9.61485876,15.6491754 6.26717514,15.3943028 4.38522599,15.1709145 C2.91649718,15.0104948 2.54968927,14.6596702 2.21581921,13.1574213 L2.21581921,13.1574213 Z" id="path-21"></path>
        <linearGradient x1="30.1874332%" y1="-4.80308309%" x2="59.3295712%" y2="91.2235895%" id="linearGradient-23">
            <stop stop-color="#828484" offset="0%"></stop>
            <stop stop-color="#969797" offset="100%"></stop>
        </linearGradient>
        <path d="M10.9353672,13.1574213 C11.4144633,11.113943 12.7529379,3.64017991 13.0718362,1.62818591 C13.2949153,0.127436282 12.3382203,-0.350824588 11.3815254,0.574212894 C9.75559322,2.04347826 1.23966102,11.88006 0.378785311,13.7016492 C-0.226073446,14.946027 0.345847458,15.7451274 1.94183616,15.6806597 C3.53632768,15.6491754 6.88550847,15.3943028 8.79889831,15.1709145 C10.2331921,15.0104948 10.6164689,14.6596702 10.9353672,13.1574213 L10.9353672,13.1574213 Z" id="path-24"></path>
        <linearGradient x1="69.7385002%" y1="-4.81270474%" x2="40.6043473%" y2="91.2269571%" id="linearGradient-26">
            <stop stop-color="#828484" offset="0%"></stop>
            <stop stop-color="#969797" offset="100%"></stop>
        </linearGradient>
        <path d="M17.3717232,0.335832084 C26.4925141,0.335832084 34.6251695,0.0794602699 34.6251695,0.0794602699 C34.6251695,0.0794602699 33.1264972,12.4407796 29.0122599,26.3328336 C24.8980226,40.2263868 20.0816102,49.7751124 17.3717232,49.7751124 C14.6453672,49.7751124 9.81248588,40.2263868 5.69824859,26.3328336 C1.55107345,12.4407796 0.116779661,0.0794602699 0.116779661,0.0794602699 C0.116779661,0.0794602699 8.21799435,0.335832084 17.3717232,0.335832084 Z" id="path-27"></path>
        <linearGradient x1="50%" y1="0%" x2="50%" y2="100%" id="linearGradient-29">
            <stop stop-color="#000000" stop-opacity="0" offset="0%"></stop>
            <stop stop-color="#000000" offset="100%"></stop>
        </linearGradient>
        <path d="M10.5760452,12.7961019 C11.0237006,10.7841079 12.2977966,3.47076462 12.6181921,1.52173913 C12.8412712,0.0524737631 11.9160169,-0.394302849 10.959322,0.500749625 C9.39627119,1.93703148 1.0719774,11.5502249 0.244039548,13.3073463 C-0.363813559,14.5532234 0.211101695,15.2878561 1.77415254,15.2548726 C3.33720339,15.2233883 6.59056497,14.9685157 8.43957627,14.7451274 C9.87536723,14.6161919 10.2272034,14.2338831 10.5760452,12.7961019 L10.5760452,12.7961019 Z" id="path-30"></path>
        <linearGradient x1="69.9102354%" y1="-4.78795459%" x2="40.7675951%" y2="91.1939198%" id="linearGradient-32">
            <stop stop-color="#828484" offset="0%"></stop>
            <stop stop-color="#969797" offset="100%"></stop>
        </linearGradient>
        <path d="M2.17240113,12.7961019 C1.71127119,10.7841079 0.402740113,3.47076462 0.100310734,1.52173913 C-0.10779661,0.0524737631 0.817457627,-0.394302849 1.77415254,0.500749625 C3.33720339,1.93703148 11.66,11.5502249 12.5074011,13.3073463 C13.0643503,14.5532234 12.5223729,15.2878561 10.9608192,15.2548726 C9.41274011,15.2233883 6.12793785,14.9685157 4.26245763,14.7451274 C2.85810734,14.6161919 2.49129944,14.2338831 2.17240113,12.7961019 Z" id="path-33"></path>
        <linearGradient x1="30.2135769%" y1="-4.79780798%" x2="59.3452089%" y2="91.1796324%" id="linearGradient-35">
            <stop stop-color="#828484" offset="0%"></stop>
            <stop stop-color="#969797" offset="100%"></stop>
        </linearGradient>
        <path d="M48.3632486,0.059970015 C64.3411017,0.059970015 93.9372599,1.33733133 96.075226,2.90104948 C98.1802542,4.46626687 93.9372599,51.3193403 92.5987853,53.2683658 C91.2588136,55.2158921 68.3280791,57.9625187 48.3632486,57.9625187 C28.380452,57.9625187 5.46468927,55.2158921 4.12621469,53.2683658 C2.75480226,51.3193403 -1.45525424,4.46626687 0.664745763,2.90104948 C2.75480226,1.33733133 32.3509605,0.059970015 48.3632486,0.059970015 Z" id="path-36"></path>
        <linearGradient x1="50.0013677%" y1="100.227855%" x2="50.0013677%" y2="-0.303720774%" id="linearGradient-38">
            <stop stop-color="#C5C2C1" offset="0%"></stop>
            <stop stop-color="#A8A8A7" offset="100%"></stop>
        </linearGradient>
        <path d="M14.5076271,56.7811094 C12.4025989,57.5157421 -0.116779661,18.8710645 0.0913276836,15.8065967 C0.31440678,12.7391304 8.83033898,-0.355322339 10.1373729,0.059970015 C9.2450565,25.898051 16.0062994,56.2698651 14.5076271,56.7811094 Z" id="path-39"></path>
        <linearGradient x1="49.9963768%" y1="100.000272%" x2="49.9963768%" y2="-1.16987673%" id="linearGradient-41">
            <stop stop-color="#595C5E" offset="0%"></stop>
            <stop stop-color="#828484" offset="100%"></stop>
        </linearGradient>
        <path d="M0.323389831,56.7811094 C2.4269209,57.4842579 14.9612712,18.8710645 14.7381921,15.8065967 C14.515113,12.7391304 6.00067797,-0.355322339 4.69214689,0.059970015 C5.5530226,25.898051 -1.17677966,56.2698651 0.323389831,56.7811094 L0.323389831,56.7811094 Z" id="path-42"></path>
        <linearGradient x1="50.0015548%" y1="100.001778%" x2="50.0015548%" y2="-1.16830897%" id="linearGradient-44">
            <stop stop-color="#595C5E" offset="0%"></stop>
            <stop stop-color="#828484" offset="100%"></stop>
        </linearGradient>
        <path d="M38.1824576,0.806596702 C54.9897458,0.806596702 71.4781356,0.104947526 73.6789831,0.104947526 C75.6896893,0.104947526 76.3589266,0.99850075 76.1987288,3.49025487 C76.0699718,5.94902549 74.7958757,32.8395802 74.4769774,35.7781109 C74.2538983,37.886057 73.8077401,38.5247376 72.3390113,38.7811094 C70.5214407,39.1634183 52.9805367,40.7601199 38.1824576,40.7601199 C23.3664124,40.7601199 5.82550847,39.1634183 4.0229096,38.7811094 C2.55717514,38.5247376 2.1259887,37.886057 1.88793785,35.7781109 C1.56903955,32.8395802 0.291949153,5.94902549 0.148220339,3.49025487 C0.00598870056,0.99850075 0.675225989,0.104947526 2.68443503,0.104947526 C4.88528249,0.104947526 21.3587006,0.806596702 38.1824576,0.806596702 Z" id="path-45"></path>
        <linearGradient x1="50.0010388%" y1="100.885054%" x2="50.0010388%" y2="1.49131541%" id="linearGradient-47">
            <stop stop-color="#B0AFAE" offset="0%"></stop>
            <stop stop-color="#828484" offset="100%"></stop>
        </linearGradient>
        <path d="M0.0479096045,0.023988006 C4.59782486,1.41529235 6.82412429,4.0029985 6.82412429,8.26386807 L6.82412429,31.2938531 C6.82412429,35.5547226 4.59782486,38.1229385 0.0479096045,39.5157421 L0.0479096045,0.023988006 Z" id="path-48"></path>
        <linearGradient x1="50%" y1="-0.436581755%" x2="50%" y2="99.8713033%" id="linearGradient-50">
            <stop stop-color="#595C5E" offset="0%"></stop>
            <stop stop-color="#C5C2C1" offset="50%"></stop>
            <stop stop-color="#595C5E" offset="100%"></stop>
        </linearGradient>
        <path d="M6.83909605,39.5142429 C2.28918079,38.1229385 0.0628813559,35.5352324 0.0628813559,31.2758621 L0.0628813559,8.24437781 C0.0628813559,3.98350825 2.28768362,1.41529235 6.83909605,0.023988006 L6.83909605,39.5142429 Z" id="path-51"></path>
        <linearGradient x1="50%" y1="100.440395%" x2="50%" y2="0.130979499%" id="linearGradient-53">
            <stop stop-color="#595C5E" offset="0%"></stop>
            <stop stop-color="#C5C2C1" offset="50%"></stop>
            <stop stop-color="#595C5E" offset="100%"></stop>
        </linearGradient>
        <path d="M77.4027216,0.0899110991 C112.97803,0.0899110991 137.543289,1.84122294 145.839004,4.33136947 C152.550733,6.35046002 153.883198,9.25302485 154.293417,18.1698604 C155.18572,37.7528887 154.293417,471.949223 153.402612,494.391815 C152.945981,506.04703 150.52359,511.072279 143.615734,513.41974 C135.168807,516.302759 109.531588,518.546628 77.4027216,518.546628 C45.2813407,518.546628 19.6366363,516.302759 11.1897087,513.41974 C4.27286978,511.072279 1.86844481,506.04703 1.40283076,494.391815 C0.519511497,471.949223 -0.380276427,37.7528887 0.51202574,18.1698604 C0.922245193,9.25302485 2.25470984,6.35046002 8.96643906,4.33136947 C17.2696401,1.84122294 41.8199269,0.0899110991 77.4027216,0.0899110991 L77.4027216,0.0899110991 Z" id="path-54"></path>
        <linearGradient x1="49.9995602%" y1="100%" x2="49.9995602%" y2="1.71440391e-14%" id="linearGradient-56">
            <stop stop-color="#AFB9C4" offset="0%"></stop>
            <stop stop-color="#8F99A4" offset="100%"></stop>
        </linearGradient>
    </defs>
    <g id="Symbols" stroke="none" stroke-width="1" fill="none" fill-rule="evenodd">
        <g id="Maps/Markers/fk-map-icon-truck/blue">
            <g id="fk-map-icon-truck-tankers">
                <g id="g10" transform="translate(105.799435, 399.100450) scale(-1, 1) rotate(-180.000000) translate(-105.799435, -399.100450) translate(0.299435, 0.100450)">
                    <g id="g12" transform="translate(-0.000000, 0.599700)">
                        <path d="M36.7257062,788.212894 C32.2132203,786.424288 31.1607062,783.103448 30.7295198,779.814093 C30.2668927,776.29985 30.2668927,771.542729 30.2668927,771.317841 C30.2668927,769.848576 31.4631356,768.635682 32.9468362,768.635682 C34.4305367,768.635682 35.6103107,769.848576 35.6103107,771.317841 C35.6103107,771.382309 35.6417514,775.949025 36.0564689,779.07946 C36.4232768,781.857571 37.0446045,782.56072 38.7034746,783.230885 C38.9265537,783.295352 61.060791,791.598201 105.106186,791.598201 C149.150085,791.598201 171.251384,783.295352 171.47596,783.230885 C173.133333,782.56072 173.77113,781.857571 174.121469,779.07946 C174.537684,775.949025 174.569124,771.382309 174.569124,771.317841 C174.569124,769.848576 175.748898,768.635682 177.247571,768.635682 C178.716299,768.635682 179.927514,769.848576 179.927514,771.317841 C179.927514,771.542729 179.927514,776.29985 179.448418,779.814093 C179.035198,783.103448 177.982684,786.424288 173.452232,788.212894 C173.23065,788.308846 150.169661,796.98051 105.106186,796.98051 C60.0232486,796.98051 36.9652542,788.308846 36.7257062,788.212894" id="path14" fill="#595B5D" fill-rule="nonzero"></path>
                        <path d="M37.3320621,787.223388 C33.7283616,785.785607 32.740226,783.422789 32.2925706,780.037481 C31.8464124,776.652174 31.8464124,771.989505 31.8464124,771.797601 C31.8464124,771.190405 32.3404802,770.67916 32.9468362,770.67916 C33.5367232,770.67916 34.0472599,771.190405 34.0472599,771.797601 C34.0472599,771.829085 34.0472599,776.491754 34.4934181,779.749625 C34.9081356,782.943028 35.7690113,784.221889 38.1285593,785.146927 C38.3531356,785.242879 60.7418927,793.643178 105.106186,793.643178 C149.437542,793.643178 171.826299,785.242879 172.050876,785.146927 C174.441864,784.221889 175.271299,782.943028 175.68452,779.749625 C176.132175,776.491754 176.132175,771.829085 176.132175,771.797601 C176.132175,771.190405 176.642712,770.67916 177.247571,770.67916 C177.855424,770.67916 178.364463,771.190405 178.364463,771.797601 C178.364463,771.989505 178.333023,776.652174 177.885367,780.037481 C177.439209,783.422789 176.451073,785.785607 172.878814,787.223388 C172.655734,787.287856 149.85226,795.862069 105.106186,795.862069 C60.3271751,795.862069 37.5401695,787.287856 37.3320621,787.223388" id="path16" fill="#AFAFAD" fill-rule="nonzero"></path>
                        <path d="M50.0415819,792.923538 L50.0415819,781.665667 C50.0415819,780.484258 54.3624294,780.484258 54.3624294,781.665667 L54.3624294,792.923538 C54.3624294,794.104948 53.4072316,794.776612 52.2109887,794.776612 C51.0147458,794.776612 50.0415819,794.104948 50.0415819,792.923538" id="path18" fill="#595B5D" fill-rule="nonzero"></path>
                        <path d="M155.815508,792.923538 L155.815508,781.665667 C155.815508,780.484258 160.152825,780.484258 160.152825,781.665667 L160.152825,792.923538 C160.152825,794.104948 159.197627,794.776612 157.984915,794.776612 C156.805141,794.776612 155.815508,794.104948 155.815508,792.923538" id="path20" fill="#595B5D" fill-rule="nonzero"></path>
                        <path d="M37.7467797,766.049475 C37.7467797,766.049475 24.5746328,762.247376 19.5995198,753.592204 C14.5929661,744.905547 11.7528249,707.763118 15.2951412,696.649175 C18.8344633,685.565217 33.3450847,669.98051 33.3450847,669.98051 L37.7467797,766.049475" id="path22" fill="#6F6F72" fill-rule="nonzero"></path>
                        <path d="M38.6241243,765.538231 C38.6241243,765.538231 25.5642655,760.811094 21.2104802,753.113943 C16.8551977,745.416792 14.4013277,709.934033 17.2070339,700.193403 C19.9977684,690.452774 31.0484181,676.847076 31.0484181,676.847076 L38.6241243,765.538231" id="path24" fill="#828484" fill-rule="nonzero"></path>
                        <g id="g26" transform="translate(17.666667, 680.959520)">
                            <g id="g28-Clipped">
                                <mask id="mask-2" fill="white">
                                    <use xlink:href="#path-1"></use>
                                </mask>
                                <g id="path32"></g>
                                <g id="g28" mask="url(#mask-2)" fill-rule="nonzero" fill="url(#linearGradient-3)">
                                    <path d="M19.6339548,81.2563718 C19.6339548,81.2563718 8.50245763,78.0629685 4.70711864,71.6116942 C0.928248588,65.1604198 -1.24115819,31.5607196 1.04053672,21.916042 C3.30426554,12.2398801 13.8129379,0.103448276 13.8129379,0.103448276 L19.6339548,81.2563718" id="path40"></path>
                                </g>
                            </g>
                        </g>
                        <g id="g42" transform="translate(19.014124, 711.844078)">
                            <g id="g44-Clipped">
                                <mask id="mask-5" fill="white">
                                    <use xlink:href="#path-4"></use>
                                </mask>
                                <g id="path48"></g>
                                <g id="g44" mask="url(#mask-5)" fill-rule="nonzero" fill="url(#linearGradient-3)">
                                    <path d="M0.0119774011,0.0059970015 C0.0119774011,0.0059970015 0.616836158,31.8155922 3.44050847,37.9475262 C6.22974576,44.047976 10.8230791,45.3253373 10.8230791,45.3253373 C10.8230791,45.3253373 9.77056497,26.9610195 0.0119774011,0.0059970015" id="path56"></path>
                                </g>
                            </g>
                        </g>
                        <path d="M172.464096,766.049475 C172.464096,766.049475 185.603305,762.247376 190.611356,753.592204 C195.619407,744.905547 198.425113,707.763118 194.917232,696.649175 C191.37791,685.565217 176.864294,669.98051 176.864294,669.98051 L172.464096,766.049475" id="path58" fill="#6F6F72" fill-rule="nonzero"></path>
                        <path d="M171.570282,765.538231 C171.570282,765.538231 184.648107,760.811094 189.016864,753.113943 C193.354181,745.416792 195.811045,709.934033 193.003842,700.193403 C190.196638,690.452774 179.162458,676.847076 179.162458,676.847076 L171.570282,765.538231" id="path60" fill="#828484" fill-rule="nonzero"></path>
                        <g id="g62" transform="translate(172.774011, 680.959520)">
                            <g id="g64-Clipped">
                                <mask id="mask-7" fill="white">
                                    <use xlink:href="#path-6"></use>
                                </mask>
                                <g id="path68"></g>
                                <g id="g64" mask="url(#mask-7)" fill-rule="nonzero" fill="url(#linearGradient-3)">
                                    <path d="M0.137740113,81.2563718 C0.137740113,81.2563718 11.2362994,78.0629685 15.0316384,71.6116942 C18.8254802,65.1604198 20.9963842,31.5607196 18.7311582,21.916042 C16.4659322,12.2398801 5.97223164,0.103448276 5.97223164,0.103448276 L0.137740113,81.2563718" id="path76"></path>
                                </g>
                            </g>
                        </g>
                        <g id="g78" transform="translate(180.259887, 711.844078)">
                            <g id="g80-Clipped">
                                <mask id="mask-9" fill="white">
                                    <use xlink:href="#path-8"></use>
                                </mask>
                                <g id="path84"></g>
                                <g id="g80" mask="url(#mask-9)" fill-rule="nonzero" fill="url(#linearGradient-3)">
                                    <path d="M10.9263842,0.0059970015 C10.9263842,0.0059970015 10.2885876,31.8155922 7.48138418,37.9475262 C4.67418079,44.047976 0.0823446328,45.3253373 0.0823446328,45.3253373 C0.0823446328,45.3253373 1.13485876,26.9610195 10.9263842,0.0059970015" id="path92"></path>
                                </g>
                            </g>
                        </g>
                        <path d="M23.7781356,597.194903 L186.43274,597.194903 C186.497119,647.847076 184.169011,696.83958 183.595593,700.767616 C183.243757,703.290855 182.32,706.356822 182.32,706.356822 C182.32,706.356822 183.435395,708.209895 183.787232,710.349325 C184.137571,712.52024 183.754294,723.443778 183.276695,734.046477 C182.830537,744.682159 181.298927,753.944528 180.342232,757.169415 C179.704435,759.308846 178.333023,760.874063 178.174322,761.896552 C177.791045,764.547226 177.247571,772.532234 176.67565,775.374813 C176.323814,777.226387 175.55726,778.28036 174.027147,779.014993 C171.890678,780.037481 165.065056,781.857571 159.708164,783.230885 C159.708164,783.230885 158.973051,784.85907 157.218362,785.689655 C155.177712,786.647676 137.22209,790.64018 105.106186,790.64018 C72.9723164,790.64018 55.0316667,786.647676 52.9910169,785.689655 C51.2063842,784.85907 50.504209,783.230885 50.504209,783.230885 C45.1128814,781.857571 38.3201977,780.037481 36.1522881,779.014993 C34.6221751,778.28036 33.8720904,777.226387 33.5052825,775.374813 C32.9468362,772.532234 32.3883898,764.547226 32.0066102,761.896552 C31.8628814,760.874063 30.4914689,759.308846 29.8372034,757.169415 C28.9119492,753.944528 27.3488983,744.682159 26.9027401,734.046477 C26.4251412,723.443778 26.0418644,712.52024 26.3937006,710.349325 C26.7605085,708.209895 27.859435,706.356822 27.859435,706.356822 C27.859435,706.356822 26.9656215,703.290855 26.6152825,700.767616 C26.0253955,696.83958 23.7137571,647.847076 23.7781356,597.194903" id="path94" fill="#595B5D" fill-rule="nonzero"></path>
                        <path d="M51.3007062,793.371814 L51.3007062,782.145427 C51.3007062,781.634183 53.1033051,781.634183 53.1033051,782.145427 L53.1033051,793.371814 C53.1033051,793.883058 51.3007062,793.883058 51.3007062,793.371814" id="path96" fill="#AFAFAD" fill-rule="nonzero"></path>
                        <path d="M157.091102,793.371814 L157.091102,782.145427 C157.091102,781.634183 158.877232,781.634183 158.877232,782.145427 L158.877232,793.371814 C158.877232,793.883058 157.091102,793.883058 157.091102,793.371814" id="path98" fill="#AFAFAD" fill-rule="nonzero"></path>
                        <path d="M191.728249,643.056972 C191.79113,640.692654 189.973559,638.745127 187.614011,638.649175 L181.617825,638.458771 C179.289718,638.362819 177.822486,679.944528 180.150593,680.04048 L186.14678,680.232384 C188.506328,680.328336 190.484096,678.475262 190.548475,676.143928 L191.728249,643.056972" id="path100" fill="#828484" fill-rule="nonzero"></path>
                        <path d="M189.558842,659.536732 C189.909181,649.188906 190.069379,640.788606 189.49596,640.757121 C188.889605,640.725637 188.506328,649.124438 188.124548,659.505247 C187.774209,669.853073 187.614011,678.251874 188.187429,678.284858 C188.762345,678.284858 189.175565,669.884558 189.558842,659.536732" id="path102" fill="#595B5D" fill-rule="nonzero"></path>
                        <path d="M187.263672,659.472264 C187.645452,649.092954 187.80565,640.692654 187.230734,640.661169 C186.624379,640.661169 186.211158,649.061469 185.859322,659.409295 C185.508983,669.757121 185.317345,678.155922 185.922203,678.188906 C186.497119,678.22039 186.911836,669.821589 187.263672,659.472264" id="path104" fill="#595B5D" fill-rule="nonzero"></path>
                        <path d="M185.031384,659.376312 C185.381723,649.028486 185.540424,640.629685 184.967006,640.598201 C184.39209,640.598201 183.977373,648.965517 183.595593,659.313343 C183.243757,669.692654 183.052119,678.092954 183.659972,678.092954 C184.231893,678.124438 184.648107,669.725637 185.031384,659.376312" id="path106" fill="#595B5D" fill-rule="nonzero"></path>
                        <path d="M18.4826271,643.056972 C18.4182486,640.692654 20.2537853,638.745127 22.5968644,638.649175 L28.5930508,638.458771 C30.9376271,638.362819 32.3883898,679.944528 30.0602825,680.04048 L24.0311582,680.232384 C21.704548,680.328336 19.7267797,678.475262 19.6474294,676.143928 L18.4826271,643.056972" id="path108" fill="#828484" fill-rule="nonzero"></path>
                        <path d="M20.6670056,659.536732 C20.3166667,649.188906 20.1250282,640.788606 20.7164124,640.757121 C21.3048023,640.725637 21.7195198,649.124438 22.0878249,659.505247 C22.4381638,669.853073 22.6298023,678.251874 22.0234463,678.284858 C21.4500282,678.284858 21.0338136,669.884558 20.6670056,659.536732" id="path110" fill="#595B5D" fill-rule="nonzero"></path>
                        <path d="M22.9157627,659.472264 C22.5654237,649.092954 22.3737853,640.692654 22.9801412,640.661169 C23.5535593,640.661169 23.9682768,649.061469 24.3365819,659.409295 C24.7033898,669.757121 24.8785593,678.155922 24.2871751,678.188906 C23.6972881,678.22039 23.2825706,669.821589 22.9157627,659.472264" id="path112" fill="#595B5D" fill-rule="nonzero"></path>
                        <path d="M25.2139266,659.376312 C24.8306497,649.028486 24.670452,640.629685 25.2438701,640.598201 C25.8187853,640.598201 26.2484746,648.965517 26.6152825,659.313343 C26.9656215,669.692654 27.1258192,678.092954 26.5524011,678.092954 C25.9774859,678.124438 25.5642655,669.725637 25.2139266,659.376312" id="path114" fill="#595B5D" fill-rule="nonzero"></path>
                        <path d="M180.565311,685.118441 L184.806808,685.118441 C184.806808,685.118441 187.039096,687.737631 190.963192,687.737631 C194.917232,687.737631 202.443531,683.329835 203.910763,681.062969 C205.346554,678.794603 204.58,673.973013 202.284831,673.430285 C199.988164,672.886057 186.05096,677.421289 186.05096,677.421289 L179.321158,673.941529 L180.565311,685.118441" id="path116" fill="#828484" fill-rule="nonzero"></path>
                        <path d="M187.518192,680.071964 C187.103475,678.667166 189.112684,677.901049 194.502514,676.23988 C199.860904,674.578711 201.965932,674.037481 202.379153,675.442279 C202.826808,676.815592 200.338503,678.571214 195.682288,680.008996 C190.994633,681.476762 187.965847,681.445277 187.518192,680.071964" id="path118" fill="#595B5D" fill-rule="nonzero"></path>
                        <g id="g120" transform="translate(185.500000, 676.611694)">
                            <g id="g122-Clipped">
                                <mask id="mask-11" fill="white">
                                    <use xlink:href="#path-10"></use>
                                </mask>
                                <g id="path126"></g>
                                <g id="g122" mask="url(#mask-11)" fill-rule="nonzero" fill="url(#linearGradient-12)">
                                    <path d="M0.359322034,5.12143928 C-0.69319209,8.1874063 1.8909322,10.2638681 5.5889548,10.2638681 C9.3229096,10.2638681 16.5931921,6.17541229 17.7100847,4.19490255 C18.8254802,2.18290855 18.1248023,0.139430285 18.1248023,0.139430285 C15.9239548,3.94002999 4.02740113,8.15592204 0.359322034,5.12143928" id="path134"></path>
                                </g>
                            </g>
                        </g>
                        <path d="M29.6141243,685.118441 L25.4190395,685.118441 C25.4190395,685.118441 23.1867514,687.737631 19.2327119,687.737631 C15.2951412,687.737631 7.76734463,683.329835 6.30011299,681.062969 C4.84935028,678.794603 5.62937853,673.973013 7.91107345,673.430285 C10.189774,672.886057 24.1599153,677.421289 24.1599153,677.421289 L30.8897175,673.941529 L29.6141243,685.118441" id="path136" fill="#828484" fill-rule="nonzero"></path>
                        <path d="M22.6762147,680.071964 C23.1074011,678.667166 21.0981921,677.901049 15.7083616,676.23988 C10.3499718,674.578711 8.2449435,674.037481 7.81375706,675.442279 C7.3840678,676.815592 9.85590395,678.571214 14.5285876,680.008996 C19.2327119,681.476762 22.2465254,681.445277 22.6762147,680.071964" id="path138" fill="#595B5D" fill-rule="nonzero"></path>
                        <g id="g140" transform="translate(6.288136, 676.611694)">
                            <g id="g142-Clipped">
                                <mask id="mask-14" fill="white">
                                    <use xlink:href="#path-13"></use>
                                </mask>
                                <g id="path146"></g>
                                <g id="g142" mask="url(#mask-14)" fill-rule="nonzero" fill="url(#linearGradient-15)">
                                    <path d="M18.0634181,5.12143928 C19.1009605,8.1874063 16.5333051,10.2638681 12.8158192,10.2638681 C9.10132768,10.2638681 1.82954802,6.17541229 0.712655367,4.19490255 C-0.404237288,2.18290855 0.297937853,0.139430285 0.297937853,0.139430285 C2.48381356,3.94002999 14.395339,8.15592204 18.0634181,5.12143928" id="path154"></path>
                                </g>
                            </g>
                        </g>
                        <path d="M183.403955,597.961019 C183.468333,647.496252 180.917147,682.212894 180.725508,685.118441 C182.415819,689.110945 182.478701,689.941529 182.288559,701.886057 C182.255621,703.578711 181.426186,706.356822 181.426186,706.356822 C181.426186,706.356822 180.725508,722.262369 179.577175,735.73913 C178.524661,748.002999 176.292373,761.545727 176.292373,761.545727 C176.292373,761.545727 175.621638,770.551724 175.206921,773.617691 C175.079661,774.544228 174.792203,774.95952 174.058588,775.245877 C172.528475,775.821589 163.503503,778.344828 158.239435,779.685157 C158.239435,779.685157 157.793277,780.676162 156.676384,781.218891 C154.731554,782.112444 135.53178,785.593703 105.264887,785.593703 C74.9979944,785.593703 55.7982203,782.112444 53.8518927,781.218891 C52.7364972,780.676162 52.2738701,779.685157 52.2738701,779.685157 C47.0112994,778.344828 38.0012994,775.821589 36.4711864,775.245877 C35.7211017,774.95952 35.450113,774.544228 35.3228531,773.617691 C34.9081356,770.551724 34.2059605,761.545727 34.2059605,761.545727 C34.2059605,761.545727 32.0066102,748.002999 30.9525989,735.73913 C29.7728249,722.262369 29.1035876,706.356822 29.1035876,706.356822 C29.1035876,706.356822 28.2741525,703.578711 28.2427119,701.886057 C28.0510734,689.941529 28.115452,689.110945 29.7728249,685.118441 C29.5976554,682.212894 26.7440395,647.496252 26.8069209,597.961019 L183.403955,597.961019" id="path156" fill="#4A4A4A" fill-rule="nonzero"></path>
                        <g id="g158" transform="translate(33.387006, 723.988006)">
                            <g id="g160-Clipped">
                                <mask id="mask-17" fill="white">
                                    <use xlink:href="#path-16"></use>
                                </mask>
                                <g id="path164"></g>
                                <g id="g160" mask="url(#mask-17)" fill-rule="nonzero" fill="#575657">
                                    <path d="M71.7191808,3.06446777 C122.109605,3.06446777 143.382966,0.0629685157 143.382966,0.0629685157 C143.382966,0.0629685157 140.575763,15.2338831 135.34613,30.4347826 C130.116497,45.6056972 124.120311,54.6446777 122.397062,55.8890555 C120.64387,57.1664168 96.2129661,60.3283358 71.7191808,60.3283358 C47.2238983,60.3283358 22.7630508,57.1664168 21.0398023,55.8890555 C19.3180508,54.6446777 13.3053955,45.6056972 8.07576271,30.4347826 C2.89254237,15.2338831 0.0389265537,0.0629685157 0.0389265537,0.0629685157 C0.0389265537,0.0629685157 21.3272599,3.06446777 71.7191808,3.06446777" id="path172" style="mix-blend-mode: darken;"></path>
                                </g>
                            </g>
                        </g>
                        <g id="g174" transform="translate(62.132768, 727.586207)">
                            <g id="g176-Clipped">
                                <mask id="mask-19" fill="white">
                                    <use xlink:href="#path-18"></use>
                                </mask>
                                <g id="path180"></g>
                                <g id="g176" mask="url(#mask-19)" fill-rule="nonzero" fill="url(#linearGradient-20)">
                                    <path d="M42.9734181,0.935532234 C73.080113,0.935532234 85.8046045,0.00899550225 85.8046045,0.00899550225 C85.8046045,0.00899550225 84.689209,13.6461769 81.5631073,27.9235382 C78.4370056,42.2308846 75.1207627,52.2593703 74.0682486,53.4407796 C73.0157345,54.6551724 57.6112994,56.7301349 42.9734181,56.7301349 C28.3325424,56.7301349 12.8966667,54.6551724 11.8755932,53.4407796 C10.8245763,52.2593703 7.49186441,42.2308846 4.36576271,27.9235382 C1.27110169,13.6461769 0.139237288,0.00899550225 0.139237288,0.00899550225 C0.139237288,0.00899550225 12.865226,0.935532234 42.9734181,0.935532234" id="path188"></path>
                                </g>
                            </g>
                        </g>
                        <path d="M105.106186,728.521739 C135.212881,728.521739 147.937373,727.595202 147.937373,727.595202 C147.937373,727.595202 145.865282,738.677661 142.038503,752.763118 C138.180282,766.847076 134.702345,776.364318 133.682768,777.514243 C132.661695,778.664168 119.29791,781.026987 105.106186,781.026987 C90.9129661,781.026987 77.5177401,778.664168 76.5296045,777.514243 C75.5085311,776.364318 72.0320904,766.847076 68.1738701,752.763118 C64.3455932,738.677661 62.2720056,727.595202 62.2720056,727.595202 C62.2720056,727.595202 74.9979944,728.521739 105.106186,728.521739" id="path190" fill="#575755" fill-rule="nonzero"></path>
                        <path d="M59.1953107,727.595202 C59.1953107,727.595202 60.4858757,741.361319 63.420339,755.509745 C66.4356497,770.008996 70.310339,781.026987 70.310339,781.026987 C70.310339,781.026987 64.8890678,780.835082 63.899435,779.557721 C62.9741808,778.344828 55.5272316,754.007496 59.1953107,727.595202" id="path192" fill="#6E6E6C" fill-rule="nonzero"></path>
                        <path d="M151.000593,727.595202 C151.000593,727.595202 149.692062,741.361319 146.757599,755.509745 C143.760254,770.008996 139.900537,781.026987 139.900537,781.026987 C139.900537,781.026987 145.291864,780.835082 146.28,779.557721 C147.236695,778.344828 154.667175,754.007496 151.000593,727.595202" id="path194" fill="#6E6E6C" fill-rule="nonzero"></path>
                        <path d="M175.717458,769.01949 C175.717458,769.01949 175.781836,771.574213 175.367119,774.64018 C175.239859,775.566717 174.983842,775.982009 174.218785,776.268366 C172.655734,776.875562 163.630763,779.398801 158.336751,780.73913 C158.336751,780.73913 157.889096,781.761619 156.740763,782.272864 C154.794435,783.167916 135.500339,787 105.106186,787 C74.7105367,787 55.3835028,783.167916 53.4386723,782.272864 C52.3217797,781.761619 51.8756215,780.73913 51.8756215,780.73913 C46.5816102,779.398801 37.5237006,776.875562 35.9935876,776.268366 C35.2270339,775.982009 34.9725141,775.566717 34.8138136,774.64018 C34.3975989,771.574213 34.4934181,769.01949 34.4934181,769.01949 C34.4934181,769.01949 34.8437571,770.775112 35.2914124,773.713643 C35.4186723,774.608696 35.689661,775.022489 36.4397458,775.278861 C37.9698588,775.853073 46.9484181,778.28036 52.2109887,779.526237 C52.2109887,779.526237 52.6571469,780.515742 53.7890113,780.995502 C55.7188701,781.857571 74.9021751,785.211394 105.106186,785.211394 C135.308701,785.211394 154.475537,781.857571 156.421864,780.995502 C157.53726,780.515742 157.984915,779.526237 157.984915,779.526237 C163.247486,778.28036 172.241017,775.853073 173.77113,775.278861 C174.537684,775.022489 174.792203,774.608696 174.92096,773.713643 C175.334181,770.775112 175.717458,769.01949 175.717458,769.01949" id="path196" fill="#343333" fill-rule="nonzero"></path>
                        <path d="M178.716299,691.505247 C179.193898,693.934033 178.460282,695.211394 176.80291,695.913043 C174.410424,696.902549 158.717034,701.535232 158.717034,701.535232 L158.558333,702.94003 C158.558333,702.94003 137.127768,709.838081 105.106186,709.838081 C73.0846045,709.838081 51.6525424,702.94003 51.6525424,702.94003 L51.4923446,701.535232 C51.4923446,701.535232 35.7854802,696.902549 33.3780226,695.913043 C31.7191525,695.211394 31.0169774,693.934033 31.4960734,691.505247 C32.1982486,687.898051 32.8989266,685.247376 32.8989266,685.247376 C32.8989266,685.247376 30.3791808,652.286357 30.3791808,597.545727 L179.831695,597.545727 C179.831695,652.286357 177.311949,685.247376 177.311949,685.247376 C177.311949,685.247376 178.014124,687.898051 178.716299,691.505247" id="path198" fill="#595B5D" fill-rule="nonzero"></path>
                        <path d="M173.197712,671.961019 L167.426102,671.961019 C165.990311,671.961019 165.479774,672.472264 165.479774,674.131934 C165.479774,675.76012 165.702853,685.788606 165.702853,685.788606 C165.702853,685.788606 141.271949,691.826087 105.106186,691.826087 C68.9389266,691.826087 44.5080226,685.788606 44.5080226,685.788606 C44.5080226,685.788606 44.7161299,675.76012 44.7161299,674.131934 C44.7161299,672.472264 44.1891243,671.961019 42.7698023,671.961019 L36.9817232,671.961019 C36.9817232,671.961019 35.2914124,646.058471 36.519096,598.5997 L173.676808,598.5997 C174.92096,646.058471 173.197712,671.961019 173.197712,671.961019" id="path200" fill="#A8A8A6" fill-rule="nonzero"></path>
                        <path d="M105.106186,727.052474 C144.014774,727.052474 172.911751,723.922039 175.079661,723.604198 C177.184689,723.284858 177.885367,722.868066 178.397401,720.92054 C179.035198,718.332834 180.182034,708.464768 180.182034,708.464768 C180.182034,708.464768 178.014124,717.503748 177.344887,719.578711 C176.705593,721.527736 176.513955,721.782609 174.218785,722.134933 C171.667599,722.517241 141.400706,724.848576 105.106186,724.848576 C68.7787288,724.848576 38.544774,722.517241 36.0235311,722.134933 C33.6969209,721.782609 33.5052825,721.527736 32.8674859,719.578711 C32.1817797,717.503748 30.0273446,708.464768 30.0273446,708.464768 C30.0273446,708.464768 31.1771751,718.332834 31.8149718,720.92054 C32.3255085,722.868066 33.0261864,723.284858 35.1327119,723.604198 C37.3006215,723.922039 66.1961017,727.052474 105.106186,727.052474" id="path202" fill="#595B5D" fill-rule="nonzero"></path>
                        <path d="M33.6011017,718.238381 C32.9618079,715.395802 31.1127966,705.047976 30.6980791,702.301349 C30.364209,700.224888 31.1127966,699.362819 33.3286158,699.874063 C36.3439266,700.544228 44.8912994,703.067466 47.0277684,703.706147 C48.8767797,704.248876 49.1013559,704.856072 49.1013559,706.89955 L49.1013559,719.227886 C49.1013559,721.335832 48.2389831,721.782609 46.0396328,721.71964 C43.8387853,721.655172 39.2140113,721.304348 36.5984463,721.016492 C34.5577966,720.793103 34.0787006,720.281859 33.6011017,718.238381" id="path204" fill="#595B5D" fill-rule="nonzero"></path>
                        <path d="M34.5248588,717.662669 C34.014322,715.362819 32.5156497,707.091454 32.1982486,704.856072 C31.9257627,703.194903 32.5156497,702.524738 34.3032768,702.907046 C36.6927684,703.451274 43.5827684,705.494753 45.3045198,706.005997 C46.7567797,706.452774 46.9319492,706.89955 46.9319492,708.56072 L46.9319492,718.461769 C46.9319492,720.154423 46.2627119,720.505247 44.5080226,720.442279 C42.7383616,720.377811 39.0223729,720.089955 36.9173446,719.866567 C35.2914124,719.706147 34.8766949,719.292354 34.5248588,717.662669" id="path206" fill="#828484" fill-rule="nonzero"></path>
                        <path d="M176.611271,718.238381 C177.21613,715.395802 179.098079,705.047976 179.512797,702.301349 C179.831695,700.224888 179.098079,699.362819 176.864294,699.874063 C173.868446,700.544228 165.288136,703.067466 163.151667,703.706147 C161.332599,704.248876 161.10952,704.856072 161.10952,706.89955 L161.10952,719.227886 C161.10952,721.335832 161.940452,721.782609 164.17274,721.71964 C166.373588,721.655172 170.998362,721.304348 173.612429,721.016492 C175.621638,720.793103 176.132175,720.281859 176.611271,718.238381" id="path208" fill="#595B5D" fill-rule="nonzero"></path>
                        <path d="M175.68452,717.662669 C176.195056,715.362819 177.663785,707.091454 178.014124,704.856072 C178.268644,703.194903 177.663785,702.524738 175.909096,702.907046 C173.485169,703.451274 166.595169,705.494753 164.904859,706.005997 C163.439124,706.452774 163.247486,706.89955 163.247486,708.56072 L163.247486,718.461769 C163.247486,720.154423 163.916723,720.505247 165.702853,720.442279 C167.456045,720.377811 171.157062,720.089955 173.293531,719.866567 C174.888023,719.706147 175.304237,719.292354 175.68452,717.662669" id="path210" fill="#828484" fill-rule="nonzero"></path>
                        <g id="g212" transform="translate(32.788136, 703.898051)">
                            <g id="g214-Clipped">
                                <mask id="mask-22" fill="white">
                                    <use xlink:href="#path-21"></use>
                                </mask>
                                <g id="path218"></g>
                                <g id="g214" mask="url(#mask-22)" fill-rule="nonzero" fill="url(#linearGradient-23)">
                                    <path d="M2.21581921,13.1574213 C1.75319209,11.113943 0.429689266,3.64017991 0.11079096,1.62818591 C-0.145225989,0.127436282 0.84440678,-0.350824588 1.80110169,0.574212894 C3.4270339,2.04347826 11.9279944,11.88006 12.8038418,13.7016492 C13.3787571,14.946027 12.8352825,15.7451274 11.2093503,15.6806597 C9.61485876,15.6491754 6.26717514,15.3943028 4.38522599,15.1709145 C2.91649718,15.0104948 2.54968927,14.6596702 2.21581921,13.1574213" id="path226"></path>
                                </g>
                            </g>
                        </g>
                        <g id="g228" transform="translate(164.240113, 703.898051)">
                            <g id="g230-Clipped">
                                <mask id="mask-25" fill="white">
                                    <use xlink:href="#path-24"></use>
                                </mask>
                                <g id="path234"></g>
                                <g id="g230" mask="url(#mask-25)" fill-rule="nonzero" fill="url(#linearGradient-26)">
                                    <path d="M10.9353672,13.1574213 C11.4144633,11.113943 12.7529379,3.64017991 13.0718362,1.62818591 C13.2949153,0.127436282 12.3382203,-0.350824588 11.3815254,0.574212894 C9.75559322,2.04347826 1.23966102,11.88006 0.378785311,13.7016492 C-0.226073446,14.946027 0.345847458,15.7451274 1.94183616,15.6806597 C3.53632768,15.6491754 6.88550847,15.3943028 8.79889831,15.1709145 C10.2331921,15.0104948 10.6164689,14.6596702 10.9353672,13.1574213" id="path242"></path>
                                </g>
                            </g>
                        </g>
                        <path d="M105.106186,721.047976 C135.53178,721.047976 158.781412,718.844078 158.781412,718.844078 L158.781412,706.164918 C158.781412,706.164918 135.596158,713.31934 105.106186,713.31934 C74.5997458,713.31934 51.4279661,706.164918 51.4279661,706.164918 L51.4279661,718.844078 C51.4279661,718.844078 74.6476554,721.047976 105.106186,721.047976 L153.972179,714.099946" id="path244" fill="#373838" fill-rule="nonzero"></path>
                        <path d="M105.106186,717.887556 C135.53178,717.887556 158.781412,706.164918 158.781412,706.164918 C158.781412,706.164918 135.596158,711.722639 105.106186,711.722639 C74.5997458,711.722639 51.4279661,706.164918 51.4279661,706.164918 C51.4279661,706.164918 74.6476554,717.887556 105.106186,717.887556" id="path246" fill="#595B5D" fill-rule="nonzero"></path>
                        <path d="M105.106186,705.878561 C145.546384,705.878561 174.792203,695.01949 175.525819,693.934033 C176.227994,692.847076 174.377486,686.652174 174.377486,686.652174 C174.377486,686.652174 148.798249,694.124438 105.106186,694.124438 C61.3796893,694.124438 35.8019492,686.652174 35.8019492,686.652174 C35.8019492,686.652174 33.9828814,692.847076 34.6850565,693.934033 C35.4022034,695.01949 64.6644915,705.878561 105.106186,705.878561" id="path248" fill="#4F889E" fill-rule="nonzero"></path>
                        <path d="M105.106186,704.409295 C144.335169,704.409295 172.687175,694.22039 173.38935,693.166417 C174.632006,691.314843 146.982175,699.778111 105.106186,699.778111 C63.2287006,699.778111 35.5624011,691.314843 36.8065537,693.166417 C37.4922599,694.22039 65.8772034,704.409295 105.106186,704.409295" id="path250" fill="#629CB1" fill-rule="nonzero"></path>
                        <path d="M40.1707062,684.223388 C41.3504802,684.223388 42.2757345,683.586207 42.2757345,682.404798 L42.2757345,675.409295 C42.2757345,674.25937 41.3504802,673.62069 40.1707062,673.62069 L37.1898305,673.62069 C36.0235311,673.62069 35.0683333,674.25937 35.0683333,675.409295 L35.0683333,682.404798 C35.0683333,683.586207 36.0235311,684.223388 37.1898305,684.223388 L40.1707062,684.223388" id="path252" fill="#A73A20" fill-rule="nonzero"></path>
                        <path d="M39.6766384,683.074963 C40.4566667,683.074963 41.0959605,682.65967 41.0959605,681.701649 L41.0959605,676.143928 C41.0959605,675.185907 40.4566667,674.73913 39.6766384,674.73913 L37.1404237,674.73913 C36.3753672,674.73913 35.7211017,675.185907 35.7211017,676.143928 L35.7211017,681.701649 C35.7211017,682.65967 36.3753672,683.074963 37.1404237,683.074963 L39.6766384,683.074963" id="path254" fill="#EC8C14" fill-rule="nonzero"></path>
                        <path d="M170.040169,684.223388 C168.860395,684.223388 167.903701,683.586207 167.903701,682.404798 L167.903701,675.409295 C167.903701,674.25937 168.860395,673.62069 170.040169,673.62069 L173.006073,673.62069 C174.185847,673.62069 175.14404,674.25937 175.14404,675.409295 L175.14404,682.404798 C175.14404,683.586207 174.185847,684.223388 173.006073,684.223388 L170.040169,684.223388" id="path256" fill="#A73A20" fill-rule="nonzero"></path>
                        <path d="M170.550706,683.074963 C169.752712,683.074963 169.116412,682.65967 169.116412,681.701649 L169.116412,676.143928 C169.116412,675.185907 169.752712,674.73913 170.550706,674.73913 L173.070452,674.73913 C173.835508,674.73913 174.473305,675.185907 174.473305,676.143928 L174.473305,681.701649 C174.473305,682.65967 173.835508,683.074963 173.070452,683.074963 L170.550706,683.074963" id="path258" fill="#EC8C14" fill-rule="nonzero"></path>
                        <g id="g260" transform="translate(87.734463, 728.185907)">
                            <g id="g262-Clipped">
                                <mask id="mask-28" fill="white">
                                    <use xlink:href="#path-27"></use>
                                </mask>
                                <g id="path266"></g>
                                <g id="g262" mask="url(#mask-28)" fill-rule="nonzero" fill="url(#linearGradient-29)">
                                    <path d="M17.3717232,0.335832084 C26.4925141,0.335832084 34.6251695,0.0794602699 34.6251695,0.0794602699 C34.6251695,0.0794602699 33.1264972,12.4407796 29.0122599,26.3328336 C24.8980226,40.2263868 20.0816102,49.7751124 17.3717232,49.7751124 C14.6453672,49.7751124 9.81248588,40.2263868 5.69824859,26.3328336 C1.55107345,12.4407796 0.116779661,0.0794602699 0.116779661,0.0794602699 C0.116779661,0.0794602699 8.21799435,0.335832084 17.3717232,0.335832084" id="path274"></path>
                                </g>
                            </g>
                        </g>
                        <path d="M105.106186,618.145427 C105.106186,618.145427 159.994124,619.487256 163.758023,623.415292 C166.978446,626.769115 162.034774,678.635682 159.197627,682.467766 C156.390424,686.29985 134.510706,690.037481 105.106186,690.037481 C75.6837006,690.037481 53.820452,686.29985 50.9982768,682.467766 C48.1746045,678.635682 43.2324294,626.769115 46.4528531,623.415292 C50.2182486,619.487256 105.106186,618.145427 105.106186,618.145427 L87.0594382,683.24455" id="path276" fill="#C5C2C1" fill-rule="nonzero"></path>
                        <polygon id="path278" fill="#595B5D" fill-rule="nonzero" points="30.0917232 613.035982 180.117655 613.035982 180.117655 627.758501 30.0917232 627.758501"></polygon>
                        <path d="M13.3158757,594.64018 C13.3158757,607.893553 23.1553107,614.856072 36.3753672,614.856072 L173.835508,614.856072 C187.072034,614.856072 196.893503,607.893553 196.893503,594.64018 L13.3158757,594.64018" id="path280" fill="#595B5D" fill-rule="nonzero"></path>
                        <path d="M188.283249,627.43928 C188.921045,624.628186 190.708672,614.568216 191.121893,611.853073 C191.440791,609.842579 190.708672,609.010495 188.570706,609.490255 C185.636243,610.161919 177.247571,612.62069 175.17548,613.226387 C173.38935,613.770615 173.166271,614.344828 173.166271,616.356822 L173.166271,628.397301 C173.166271,630.473763 173.995706,630.889055 176.165113,630.824588 C178.300085,630.76012 182.797599,630.409295 185.381723,630.154423 C187.357994,629.931034 187.83709,629.41979 188.283249,627.43928" id="path282" fill="#595B5D" fill-rule="nonzero"></path>
                        <path d="M187.390932,626.865067 C187.901469,624.628186 189.33726,616.548726 189.686102,614.377811 C189.942119,612.748126 189.33726,612.076462 187.614011,612.46027 C185.252966,613.004498 178.556102,614.983508 176.864294,615.494753 C175.43,615.910045 175.271299,616.356822 175.271299,617.986507 L175.271299,627.662669 C175.271299,629.292354 175.909096,629.643178 177.663785,629.578711 C179.385537,629.547226 182.989237,629.25937 185.062825,629.035982 C186.624379,628.844078 187.039096,628.461769 187.390932,626.865067" id="path284" fill="#828484" fill-rule="nonzero"></path>
                        <g id="g286" transform="translate(176.367232, 613.493253)">
                            <g id="g288-Clipped">
                                <mask id="mask-31" fill="white">
                                    <use xlink:href="#path-30"></use>
                                </mask>
                                <g id="path292"></g>
                                <g id="g288" mask="url(#mask-31)" fill-rule="nonzero" fill="url(#linearGradient-32)">
                                    <path d="M10.5760452,12.7961019 C11.0237006,10.7841079 12.2977966,3.47076462 12.6181921,1.52173913 C12.8412712,0.0524737631 11.9160169,-0.394302849 10.959322,0.500749625 C9.39627119,1.93703148 1.0719774,11.5502249 0.244039548,13.3073463 C-0.363813559,14.5532234 0.211101695,15.2878561 1.77415254,15.2548726 C3.33720339,15.2233883 6.59056497,14.9685157 8.43957627,14.7451274 C9.87536723,14.6161919 10.2272034,14.2338831 10.5760452,12.7961019" id="path300"></path>
                                </g>
                            </g>
                        </g>
                        <path d="M21.9276271,627.43928 C21.2883333,624.628186 19.4722599,614.568216 19.0575424,611.853073 C18.7700847,609.842579 19.4722599,609.010495 21.6401695,609.490255 C24.5746328,610.161919 32.9468362,612.62069 35.0353955,613.226387 C36.8215254,613.770615 37.0446045,614.344828 37.0446045,616.356822 L37.0446045,628.397301 C37.0446045,630.473763 36.2151695,630.889055 34.0472599,630.824588 C31.9092938,630.76012 27.3968079,630.409295 24.8306497,630.154423 C22.8513842,629.931034 22.3423446,629.41979 21.9276271,627.43928" id="path302" fill="#595B5D" fill-rule="nonzero"></path>
                        <path d="M22.7885028,626.865067 C22.310904,624.628186 20.8436723,616.548726 20.524774,614.377811 C20.2687571,612.748126 20.8436723,612.076462 22.5818927,612.46027 C24.9579096,613.004498 31.654774,614.983508 33.3450847,615.494753 C34.749435,615.910045 34.9410734,616.356822 34.9410734,617.986507 L34.9410734,627.662669 C34.9410734,629.292354 34.270339,629.643178 32.5485876,629.578711 C30.8268362,629.547226 27.2066667,629.25937 25.1330791,629.035982 C23.5535593,628.844078 23.1553107,628.461769 22.7885028,626.865067" id="path304" fill="#828484" fill-rule="nonzero"></path>
                        <g id="g306" transform="translate(21.110169, 613.493253)">
                            <g id="g308-Clipped">
                                <mask id="mask-34" fill="white">
                                    <use xlink:href="#path-33"></use>
                                </mask>
                                <g id="path312"></g>
                                <g id="g308" mask="url(#mask-34)" fill-rule="nonzero" fill="url(#linearGradient-35)">
                                    <path d="M2.17240113,12.7961019 C1.71127119,10.7841079 0.402740113,3.47076462 0.100310734,1.52173913 C-0.10779661,0.0524737631 0.817457627,-0.394302849 1.77415254,0.500749625 C3.33720339,1.93703148 11.66,11.5502249 12.5074011,13.3073463 C13.0643503,14.5532234 12.5223729,15.2878561 10.9608192,15.2548726 C9.41274011,15.2233883 6.12793785,14.9685157 4.26245763,14.7451274 C2.85810734,14.6161919 2.49129944,14.2338831 2.17240113,12.7961019" id="path320"></path>
                                </g>
                            </g>
                        </g>
                        <path d="M105.106186,607.958021 C136.106695,607.958021 156.517684,608.469265 160.217203,609.586207 C163.916723,610.671664 174.346045,626.065967 174.410424,629.25937 C174.473305,632.454273 162.194972,668.862069 158.462514,671.928036 C154.764492,674.962519 126.72839,677.358321 105.106186,677.358321 C83.4809887,677.358321 55.4478814,674.962519 51.7318927,671.928036 C48.0323729,668.862069 35.7540395,632.454273 35.7854802,629.25937 C35.8333898,626.065967 46.2627119,610.671664 49.9787006,609.586207 C53.6931921,608.469265 74.0727401,607.958021 105.106186,607.958021" id="path322" fill="#595B5D" fill-rule="nonzero"></path>
                        <path d="M105.106186,610.736132 C123.284887,610.736132 156.932401,611.598201 159.324887,613.386807 C161.748814,615.143928 156.932401,668.446777 155.402288,670.683658 C153.870678,672.91904 127.813842,675.76012 105.106186,675.76012 C82.3970339,675.76012 56.325226,672.91904 54.8100847,670.683658 C53.2635028,668.446777 48.4635593,615.143928 50.854548,613.386807 C53.2635028,611.598201 86.9259887,610.736132 105.106186,610.736132" id="path324" fill="#A8A8A6" fill-rule="nonzero"></path>
                        <g id="g326" transform="translate(56.742938, 616.041979)">
                            <g id="g328-Clipped">
                                <mask id="mask-37" fill="white">
                                    <use xlink:href="#path-36"></use>
                                </mask>
                                <g id="path332"></g>
                                <g id="g328" mask="url(#mask-37)" fill-rule="nonzero" fill="url(#linearGradient-38)">
                                    <path d="M48.3632486,0.059970015 C64.3411017,0.059970015 93.9372599,1.33733133 96.075226,2.90104948 C98.1802542,4.46626687 93.9372599,51.3193403 92.5987853,53.2683658 C91.2588136,55.2158921 68.3280791,57.9625187 48.3632486,57.9625187 C28.380452,57.9625187 5.46468927,55.2158921 4.12621469,53.2683658 C2.75480226,51.3193403 -1.45525424,4.46626687 0.664745763,2.90104948 C2.75480226,1.33733133 32.3509605,0.059970015 48.3632486,0.059970015" id="path340"></path>
                                </g>
                            </g>
                        </g>
                        <g id="g342" transform="translate(37.878531, 614.092954)">
                            <g id="g344-Clipped">
                                <mask id="mask-40" fill="white">
                                    <use xlink:href="#path-39"></use>
                                </mask>
                                <g id="path348"></g>
                                <g id="g344" mask="url(#mask-40)" fill-rule="nonzero" fill="url(#linearGradient-41)">
                                    <path d="M14.5076271,56.7811094 C12.4025989,57.5157421 -0.116779661,18.8710645 0.0913276836,15.8065967 C0.31440678,12.7391304 8.83033898,-0.355322339 10.1373729,0.059970015 C9.2450565,25.898051 16.0062994,56.2698651 14.5076271,56.7811094" id="path356"></path>
                                </g>
                            </g>
                        </g>
                        <g id="g358" transform="translate(157.502825, 614.092954)">
                            <g id="g360-Clipped">
                                <mask id="mask-43" fill="white">
                                    <use xlink:href="#path-42"></use>
                                </mask>
                                <g id="path364"></g>
                                <g id="g360" mask="url(#mask-43)" fill-rule="nonzero" fill="url(#linearGradient-44)">
                                    <path d="M0.323389831,56.7811094 C2.4269209,57.4842579 14.9612712,18.8710645 14.7381921,15.8065967 C14.515113,12.7391304 6.00067797,-0.355322339 4.69214689,0.059970015 C5.5530226,25.898051 -1.17677966,56.2698651 0.323389831,56.7811094" id="path372"></path>
                                </g>
                            </g>
                        </g>
                        <path d="M105.106186,623.895052 C122.775847,623.895052 140.059237,623.638681 142.388842,623.638681 C144.49387,623.638681 145.194548,624.628186 145.035847,627.374813 C144.908588,630.154423 143.185339,659.983508 142.803559,663.209895 C142.58048,665.572714 142.132825,666.242879 140.569774,666.563718 C138.689322,666.97901 120.669322,668.734633 105.106186,668.734633 C89.5415537,668.734633 71.5215537,666.97901 69.6246328,666.563718 C68.0765537,666.242879 67.6468644,665.572714 67.3758757,663.209895 C67.0240395,659.983508 65.3022881,630.154423 65.1750282,627.374813 C65.0148305,624.628186 65.7170056,623.638681 67.8220339,623.638681 C70.1336723,623.638681 87.4365254,623.895052 105.106186,623.895052" id="path374" fill="#6F6F72" fill-rule="nonzero"></path>
                        <g id="g376" transform="translate(66.923729, 626.536732)">
                            <g id="g378-Clipped">
                                <mask id="mask-46" fill="white">
                                    <use xlink:href="#path-45"></use>
                                </mask>
                                <g id="path382"></g>
                                <g id="g378" mask="url(#mask-46)" fill-rule="nonzero" fill="url(#linearGradient-47)">
                                    <path d="M38.1824576,0.806596702 C54.9897458,0.806596702 71.4781356,0.104947526 73.6789831,0.104947526 C75.6896893,0.104947526 76.3589266,0.99850075 76.1987288,3.49025487 C76.0699718,5.94902549 74.7958757,32.8395802 74.4769774,35.7781109 C74.2538983,37.886057 73.8077401,38.5247376 72.3390113,38.7811094 C70.5214407,39.1634183 52.9805367,40.7601199 38.1824576,40.7601199 C23.3664124,40.7601199 5.82550847,39.1634183 4.0229096,38.7811094 C2.55717514,38.5247376 2.1259887,37.886057 1.88793785,35.7781109 C1.56903955,32.8395802 0.291949153,5.94902549 0.148220339,3.49025487 C0.00598870056,0.99850075 0.675225989,0.104947526 2.68443503,0.104947526 C4.88528249,0.104947526 21.3587006,0.806596702 38.1824576,0.806596702" id="path390"></path>
                                </g>
                            </g>
                        </g>
                        <path d="M74.679096,662.889055 C73.4978249,662.794603 72.6070056,661.836582 72.6534181,660.686657 C72.7492373,659.568216 73.7538418,658.706147 74.9336158,658.770615 C75.029435,658.802099 86.304661,659.472264 105.106186,659.472264 C123.922684,659.472264 135.148503,658.802099 135.275763,658.770615 C136.457034,658.706147 137.478107,659.568216 137.540989,660.686657 C137.605367,661.836582 136.711554,662.794603 135.53178,662.889055 C135.437458,662.889055 124.082881,663.56072 105.106186,663.56072 C86.1459605,663.56072 74.7749153,662.889055 74.679096,662.889055" id="path392" fill="#6F6F72" fill-rule="nonzero"></path>
                        <path d="M74.679096,655.991004 C73.4978249,655.895052 72.6070056,654.937031 72.6534181,653.788606 C72.7492373,652.670165 73.7538418,651.808096 74.9336158,651.871064 C75.029435,651.871064 86.304661,652.542729 105.106186,652.542729 C123.922684,652.542729 135.148503,651.871064 135.275763,651.871064 C136.457034,651.808096 137.478107,652.670165 137.540989,653.788606 C137.605367,654.937031 136.711554,655.895052 135.53178,655.991004 C135.437458,655.991004 124.082881,656.662669 105.106186,656.662669 C86.1459605,656.662669 74.7749153,655.991004 74.679096,655.991004" id="path394" fill="#6F6F72" fill-rule="nonzero"></path>
                        <path d="M74.679096,649.061469 C73.4978249,648.997001 72.6070056,648.038981 72.6534181,646.889055 C72.7492373,645.770615 73.7538418,644.908546 74.9336158,644.973013 C75.029435,645.004498 86.304661,645.644678 105.106186,645.644678 C123.922684,645.644678 135.148503,645.004498 135.275763,644.973013 C136.457034,644.908546 137.478107,645.770615 137.540989,646.889055 C137.605367,648.038981 136.711554,648.997001 135.53178,649.061469 C135.437458,649.092954 124.082881,649.764618 105.106186,649.764618 C86.1459605,649.764618 74.7749153,649.092954 74.679096,649.061469" id="path396" fill="#6F6F72" fill-rule="nonzero"></path>
                        <path d="M74.679096,642.161919 C73.4978249,642.098951 72.6070056,641.109445 72.6534181,639.991004 C72.7492373,638.872564 73.7538418,638.010495 74.9336158,638.074963 C75.029435,638.074963 86.304661,638.745127 105.106186,638.745127 C123.922684,638.745127 135.148503,638.074963 135.275763,638.074963 C136.457034,638.010495 137.478107,638.872564 137.540989,639.991004 C137.605367,641.109445 136.711554,642.098951 135.53178,642.161919 C135.437458,642.161919 124.082881,642.833583 105.106186,642.833583 C86.1459605,642.833583 74.7749153,642.161919 74.679096,642.161919" id="path398" fill="#6F6F72" fill-rule="nonzero"></path>
                        <path d="M74.679096,635.263868 C73.4978249,635.2009 72.6070056,634.242879 72.6534181,633.091454 C72.7492373,631.974513 73.7538418,631.112444 74.9336158,631.176912 C75.029435,631.176912 86.304661,631.847076 105.106186,631.847076 C123.922684,631.847076 135.148503,631.176912 135.275763,631.176912 C136.457034,631.112444 137.478107,631.974513 137.540989,633.091454 C137.605367,634.242879 136.711554,635.2009 135.53178,635.263868 C135.437458,635.295352 124.082881,635.934033 105.106186,635.934033 C86.1459605,635.934033 74.7749153,635.295352 74.679096,635.263868" id="path400" fill="#6F6F72" fill-rule="nonzero"></path>
                        <path d="M74.7584463,662.506747 C74.4081073,662.475262 74.1371186,662.187406 74.1685593,661.868066 C74.1685593,661.517241 74.4889548,661.262369 74.8228249,661.293853 C74.9500847,661.293853 86.2402825,661.964018 105.106186,661.964018 C123.985565,661.964018 135.245819,661.293853 135.373079,661.293853 C135.723418,661.262369 136.009379,661.517241 136.042316,661.868066 C136.073757,662.187406 135.786299,662.475262 135.467401,662.506747 C135.340141,662.506747 124.018503,663.176912 105.106186,663.176912 C86.1923729,663.176912 74.8692373,662.506747 74.7584463,662.506747" id="path402" fill="#595B5D" fill-rule="nonzero"></path>
                        <path d="M74.7584463,655.608696 C74.4081073,655.577211 74.1371186,655.289355 74.1685593,654.970015 C74.1685593,654.617691 74.4889548,654.362819 74.8228249,654.394303 C74.9500847,654.394303 86.2402825,655.032984 105.106186,655.032984 C123.985565,655.032984 135.245819,654.394303 135.373079,654.394303 C135.723418,654.362819 136.009379,654.617691 136.042316,654.970015 C136.073757,655.289355 135.786299,655.577211 135.467401,655.608696 C135.340141,655.608696 124.018503,656.278861 105.106186,656.278861 C86.1923729,656.278861 74.8692373,655.608696 74.7584463,655.608696" id="path404" fill="#595B5D" fill-rule="nonzero"></path>
                        <path d="M74.7584463,648.709145 C74.4081073,648.677661 74.1371186,648.391304 74.1685593,648.070465 C74.1685593,647.71964 74.4889548,647.464768 74.8228249,647.464768 C74.9500847,647.496252 86.2402825,648.166417 105.106186,648.166417 C123.985565,648.166417 135.245819,647.496252 135.373079,647.464768 C135.723418,647.464768 136.009379,647.71964 136.042316,648.070465 C136.073757,648.391304 135.786299,648.677661 135.467401,648.709145 C135.340141,648.709145 124.018503,649.38081 105.106186,649.38081 C86.1923729,649.38081 74.8692373,648.709145 74.7584463,648.709145" id="path406" fill="#595B5D" fill-rule="nonzero"></path>
                        <path d="M74.7584463,641.811094 C74.4081073,641.77961 74.1371186,641.491754 74.1685593,641.14093 C74.1685593,640.821589 74.4889548,640.565217 74.8228249,640.565217 C74.9500847,640.565217 86.2402825,641.236882 105.106186,641.236882 C123.985565,641.236882 135.245819,640.565217 135.373079,640.565217 C135.723418,640.565217 136.009379,640.821589 136.042316,641.14093 C136.073757,641.491754 135.786299,641.77961 135.467401,641.811094 C135.340141,641.811094 124.018503,642.482759 105.106186,642.482759 C86.1923729,642.482759 74.8692373,641.811094 74.7584463,641.811094" id="path408" fill="#595B5D" fill-rule="nonzero"></path>
                        <path d="M74.7584463,634.88006 C74.4081073,634.88006 74.1371186,634.593703 74.1685593,634.242879 C74.1685593,633.923538 74.4889548,633.667166 74.8228249,633.667166 C74.9500847,633.698651 86.2402825,634.338831 105.106186,634.338831 C123.985565,634.338831 135.245819,633.698651 135.373079,633.667166 C135.723418,633.667166 136.009379,633.923538 136.042316,634.242879 C136.073757,634.593703 135.786299,634.88006 135.467401,634.88006 C135.340141,634.913043 124.018503,635.583208 105.106186,635.583208 C86.1923729,635.583208 74.8692373,634.913043 74.7584463,634.88006" id="path410" fill="#595B5D" fill-rule="nonzero"></path>
                        <path d="M112.282147,681.382309 C112.282147,679.88006 111.069435,678.667166 109.570763,678.667166 L100.625141,678.667166 C99.1414407,678.667166 97.930226,679.88006 97.930226,681.382309 L97.930226,683.202399 C97.930226,684.703148 99.1414407,685.917541 100.625141,685.917541 L109.570763,685.917541 C111.069435,685.917541 112.282147,684.703148 112.282147,683.202399 L112.282147,681.382309" id="path412" fill="#A73A20" fill-rule="nonzero"></path>
                        <path d="M110.846356,682.02099 C110.846356,681.031484 109.85822,680.2009 108.678446,680.2009 L101.533927,680.2009 C100.321215,680.2009 99.3645198,681.031484 99.3645198,682.02099 L99.3645198,683.233883 C99.3645198,684.256372 100.321215,685.086957 101.533927,685.086957 L108.678446,685.086957 C109.85822,685.086957 110.846356,684.256372 110.846356,683.233883 L110.846356,682.02099" id="path414" fill="#EC8C14" fill-rule="nonzero"></path>
                        <path d="M75.9546893,680.67916 C76.0819492,679.178411 74.9665537,677.869565 73.4978249,677.74063 L64.5701695,676.943028 C63.07,676.815592 61.7629661,677.932534 61.6357062,679.433283 L61.4755085,681.221889 C61.3332768,682.722639 62.4486723,684.032984 63.9308757,684.16042 L72.8615254,684.95952 C74.3601977,685.086957 75.6687288,683.970015 75.7959887,682.467766 L75.9546893,680.67916" id="path416" fill="#A73A20" fill-rule="nonzero"></path>
                        <path d="M74.4560169,681.190405 C74.5518362,680.2009 73.6580226,679.305847 72.4468079,679.178411 L65.3337288,678.571214 C64.1539548,678.443778 63.1014407,679.178411 63.0220904,680.2009 L62.9098023,681.382309 C62.8154802,682.404798 63.7077966,683.298351 64.9205085,683.425787 L72.0320904,684.032984 C73.2118644,684.128936 74.2643785,683.425787 74.3601977,682.404798 L74.4560169,681.190405" id="path418" fill="#EC8C14" fill-rule="nonzero"></path>
                        <path d="M148.576667,679.433283 C148.44791,677.932534 147.140876,676.815592 145.642203,676.943028 L136.711554,677.74063 C135.212881,677.869565 134.128927,679.178411 134.256186,680.67916 L134.416384,682.467766 C134.543644,683.970015 135.850678,685.086957 137.34935,684.95952 L146.28,684.16042 C147.778672,684.032984 148.862627,682.722639 148.735367,681.221889 L148.576667,679.433283" id="path420" fill="#A73A20" fill-rule="nonzero"></path>
                        <path d="M147.205254,680.2009 C147.107938,679.178411 146.055424,678.443778 144.87565,678.571214 L137.732627,679.178411 C136.552853,679.305847 135.65904,680.2009 135.754859,681.190405 L135.850678,682.404798 C135.946497,683.425787 136.999011,684.128936 138.180282,684.032984 L145.291864,683.425787 C146.503079,683.298351 147.396893,682.404798 147.299576,681.382309 L147.205254,680.2009" id="path422" fill="#EC8C14" fill-rule="nonzero"></path>
                        <g id="g496" transform="translate(203.316384, 514.242879)">
                            <g id="g498-Clipped">
                                <mask id="mask-49" fill="white">
                                    <use xlink:href="#path-48"></use>
                                </mask>
                                <g id="path502"></g>
                                <g id="g498" mask="url(#mask-49)" fill-rule="nonzero" fill="url(#linearGradient-50)">
                                    <path d="M0.0479096045,0.023988006 C4.59782486,1.41529235 6.82412429,4.0029985 6.82412429,8.26386807 L6.82412429,31.2938531 C6.82412429,35.5547226 4.59782486,38.1229385 0.0479096045,39.5157421 L0.0479096045,0.023988006" id="path512"></path>
                                </g>
                            </g>
                        </g>
                        <g id="g514" transform="translate(0.000000, 514.242879)">
                            <g id="g516-Clipped">
                                <mask id="mask-52" fill="white">
                                    <use xlink:href="#path-51"></use>
                                </mask>
                                <g id="path520"></g>
                                <g id="g516" mask="url(#mask-52)" fill-rule="nonzero" fill="url(#linearGradient-53)">
                                    <path d="M6.83909605,39.5142429 C2.28918079,38.1229385 0.0628813559,35.5352324 0.0628813559,31.2758621 L0.0628813559,8.24437781 C0.0628813559,3.98350825 2.28768362,1.41529235 6.83909605,0.023988006 L6.83909605,39.5142429" id="path530"></path>
                                </g>
                            </g>
                        </g>
                        <path d="M193.590734,488.734633 C201.946469,488.734633 207.11322,490.794603 207.11322,498.284858 L207.11322,569.745127 C207.11322,577.233883 201.946469,579.293853 193.590734,579.293853 C185.249972,579.293853 180.068249,577.233883 180.068249,569.745127 L180.068249,498.284858 C180.068249,490.794603 185.249972,488.734633 193.590734,488.734633" id="path532" fill="#464749" fill-rule="nonzero"></path>
                        <path d="M16.6141525,488.734633 C24.9549153,488.734633 30.1381356,490.794603 30.1381356,498.284858 L30.1381356,569.745127 C30.1381356,577.233883 24.9549153,579.293853 16.6141525,579.293853 C8.2569209,579.293853 3.09166667,577.233883 3.09166667,569.745127 L3.09166667,498.284858 C3.09166667,490.794603 8.2569209,488.734633 16.6141525,488.734633" id="path534" fill="#464749" fill-rule="nonzero"></path>
                        <path d="M210.127034,599.781109 C210.127034,595.886057 208.882881,592.691154 204.976751,592.691154 L5.22813559,592.691154 C1.32050847,592.691154 0.0763559322,595.886057 0.0763559322,599.781109 L0.0763559322,599.781109 C0.0763559322,603.709145 1.32050847,606.904048 5.22813559,606.904048 L204.976751,606.904048 C208.882881,606.904048 210.127034,603.709145 210.127034,599.781109 L210.127034,599.781109" id="path550" fill="#828484" fill-rule="nonzero"></path>
                        <path d="M203.71613,603.134933 C205.62952,603.134933 208.054944,602.4003 210.062655,601.154423 C209.776695,604.412294 208.405282,606.904048 204.976751,606.904048 L5.22813559,606.904048 C1.79960452,606.904048 0.411723164,604.412294 0.140734463,601.154423 C2.1499435,602.4003 4.57387006,603.134933 6.47228814,603.134933 L203.71613,603.134933" id="path552" fill="#C5C2C1" fill-rule="nonzero"></path>
                        <g id="Trailer" transform="translate(1.199400, 0.000000)">
                            <polyline id="path410" fill="#E42425" fill-rule="nonzero" points="40.8198299 0.123139114 16.6004135 0.123139114 13.2497889 18.6565531 40.8198299 18.6565531 40.8198299 0.123139114"></polyline>
                            <polyline id="path412" fill="#E42425" fill-rule="nonzero" points="191.211671 0.123139114 166.992255 0.123139114 166.992255 18.6565531 194.55481 18.6565531 191.211671 0.123139114"></polyline>
                            <path d="M35.6232177,68.9813589 C35.6232177,59.1400028 27.9892433,51.1496425 18.5811446,51.1496425 L18.5811446,51.1496425 C9.17304594,51.1496425 1.53757437,59.1400028 1.53757437,68.9813589 L1.53757437,133.989038 C1.53757437,143.853849 9.17304594,151.842255 18.5811446,151.842255 L18.5811446,151.842255 C27.9892433,151.842255 35.6232177,143.853849 35.6232177,133.989038 L35.6232177,68.9813589" id="path416" fill="#46515F" fill-rule="nonzero"></path>
                            <path d="M35.6232177,165.082642 C35.6232177,155.241286 27.9892433,147.250925 18.5811446,147.250925 L18.5811446,147.250925 C9.17304594,147.250925 1.53757437,155.241286 1.53757437,165.082642 L1.53757437,230.090321 C1.53757437,239.933632 9.17304594,247.923992 18.5811446,247.923992 L18.5811446,247.923992 C27.9892433,247.923992 35.6232177,239.933632 35.6232177,230.090321 L35.6232177,165.082642" id="path418" fill="#46515F" fill-rule="nonzero"></path>
                            <path d="M172.181381,68.9813589 C172.181381,59.1400028 179.815355,51.1496425 189.223454,51.1496425 L189.223454,51.1496425 C198.640536,51.1496425 206.267024,59.1400028 206.267024,68.9813589 L206.267024,133.989038 C206.267024,143.853849 198.640536,151.842255 189.223454,151.842255 L189.223454,151.842255 C179.815355,151.842255 172.181381,143.853849 172.181381,133.989038 L172.181381,68.9813589" id="path422" fill="#46515F" fill-rule="nonzero"></path>
                            <path d="M172.181381,165.082642 C172.181381,155.241286 179.815355,147.250925 189.223454,147.250925 L189.223454,147.250925 C198.640536,147.250925 206.267024,155.241286 206.267024,165.082642 L206.267024,230.090321 C206.267024,239.933632 198.640536,247.923992 189.223454,247.923992 L189.223454,247.923992 C179.815355,247.923992 172.181381,239.933632 172.181381,230.090321 L172.181381,165.082642" id="path424" fill="#46515F" fill-rule="nonzero"></path>
                            <path d="M207.780644,15.3200695 C207.780644,10.2537745 206.557472,6.17845618 202.693324,6.17845618 L5.12624601,6.17845618 C1.25461278,6.17845618 0.0239544206,10.2537745 0.0239544206,15.3200695 L0.0239544206,15.3200695 C0.0239544206,20.364864 1.25461278,24.4831832 5.12624601,24.4831832 L202.693324,24.4831832 C206.557472,24.4831832 207.780644,20.364864 207.780644,15.3200695 L207.780644,15.3200695" id="path426" fill="#838F9B" fill-rule="nonzero"></path>
                            <path d="M207.780644,590.342595 C207.780644,585.317346 206.557472,581.199027 202.693324,581.199027 L5.12624601,581.199027 C1.25461278,581.199027 0.0239544206,585.317346 0.0239544206,590.342595 L0.0239544206,590.342595 C0.0239544206,595.40889 1.25461278,599.525254 5.12624601,599.525254 L202.693324,599.525254 C206.557472,599.525254 207.780644,595.40889 207.780644,590.342595 L207.780644,590.342595" id="path428" fill="#838F9B" fill-rule="nonzero"></path>
                            <path d="M201.447694,594.687646 C203.332608,594.687646 205.73853,593.71817 207.717764,592.132998 C207.440791,596.33341 206.084372,599.525254 202.693324,599.525254 L5.12624601,599.525254 C1.72771259,599.525254 0.354824855,596.33341 0.0868347747,592.132998 C2.07505169,593.71817 4.47947665,594.687646 6.35690437,594.687646 L201.447694,594.687646" id="path430" fill="#C7CFD9" fill-rule="nonzero"></path>
                            <path d="M6.35690437,10.9965183 C4.47947665,10.9965183 2.07505169,11.96404 0.0868347747,13.5277112 C0.354824855,9.32729924 1.72771259,6.17845618 5.12624601,6.17845618 L202.693324,6.17845618 C206.084372,6.17845618 207.440791,9.32729924 207.717764,13.5277112 C205.73853,11.96404 203.332608,10.9965183 201.447694,10.9965183 L6.35690437,10.9965183" id="path432" fill="#C7CFD9" fill-rule="nonzero"></path>
                            <polygon id="path434" fill="#64707D" fill-rule="nonzero" points="5.75804385 28.6835952 202.039069 28.6835952 202.039069 591.186977 5.75804385 591.186977 5.75804385 28.6835952"></polygon>
                            <polygon id="path436" fill="#8F99A4" fill-rule="nonzero" points="9.46349329 31.8969397 198.347094 31.8969397 198.347094 586.347415 9.46349329 586.347415 9.46349329 31.8969397"></polygon>
                            <polygon id="path438" fill="#46515F" fill-rule="nonzero" points="5.75804385 16.9267417 202.039069 16.9267417 202.039069 28.6832825 5.75804385 28.6832825"></polygon>
                            <path d="M61.5209407,18.5940062 C61.5209407,16.2875911 60.0941555,14.4346406 58.3350028,14.4346406 L20.1022503,14.4346406 C18.3445947,14.4346406 16.9163124,16.2875911 16.9163124,18.5940062 L16.9163124,18.5940062 C16.9163124,20.8808755 18.3445947,22.7533718 20.1022503,22.7533718 L58.3350028,22.7533718 C60.0941555,22.7533718 61.5209407,20.8808755 61.5209407,18.5940062 L61.5209407,18.5940062" id="path440" fill="#242B35" fill-rule="nonzero"></path>
                            <path d="M190.895772,18.5940062 C190.895772,16.2875911 189.460004,14.4346406 187.702348,14.4346406 L149.469596,14.4346406 C147.717929,14.4346406 146.291144,16.2875911 146.291144,18.5940062 L146.291144,18.5940062 C146.291144,20.8808755 147.717929,22.7533718 149.469596,22.7533718 L187.702348,22.7533718 C189.460004,22.7533718 190.895772,20.8808755 190.895772,18.5940062 L190.895772,18.5940062" id="path442" fill="#242B35" fill-rule="nonzero"></path>
                            <path d="M184.95807,573.33376 C184.95807,573.33376 148.357213,577.121754 103.902299,577.121754 C59.4563691,577.121754 22.8555116,573.33376 22.8555116,573.33376 C22.8555116,573.33376 56.971098,583.30021 103.902299,583.30021 C150.842484,583.30021 184.95807,573.33376 184.95807,573.33376" id="path444" fill="#C7CFD9" fill-rule="nonzero"></path>
                            <path d="M103.902299,40.3388101 C141.724832,40.3388101 167.836648,42.2328069 176.653372,44.8070008 C183.790292,46.8866836 185.209592,49.8928417 185.634782,59.0989564 C186.589965,79.3191807 185.634782,524.283347 184.697566,547.490183 C184.207997,559.51677 181.637389,564.684704 174.295359,567.114258 C165.312451,570.10087 138.049326,572.508924 103.902299,572.508924 C69.7552728,572.508924 42.4996336,570.10087 33.5167259,567.114258 C26.1672102,564.684704 23.6040872,559.51677 23.1160159,547.490183 C22.1698163,524.283347 21.2221195,79.3191807 22.1698163,59.0989564 C22.5950072,49.8928417 24.0232896,46.8866836 31.1512268,44.8070008 C39.9769337,42.2328069 66.0872522,40.3388101 103.902299,40.3388101" id="path446" fill="#B0B9C4" fill-rule="nonzero"></path>
                            <g id="g448" transform="translate(26.499578, 47.105598)">
                                <g id="g450-Clipped">
                                    <mask id="mask-55" fill="white">
                                        <use xlink:href="#path-54"></use>
                                    </mask>
                                    <g id="path454"></g>
                                    <g id="g450" mask="url(#mask-55)" fill-rule="nonzero" fill="url(#linearGradient-56)">
                                        <path d="M77.4027216,0.0899110991 C112.97803,0.0899110991 137.543289,1.84122294 145.839004,4.33136947 C152.550733,6.35046002 153.883198,9.25302485 154.293417,18.1698604 C155.18572,37.7528887 154.293417,471.949223 153.402612,494.391815 C152.945981,506.04703 150.52359,511.072279 143.615734,513.41974 C135.168807,516.302759 109.531588,518.546628 77.4027216,518.546628 C45.2813407,518.546628 19.6366363,516.302759 11.1897087,513.41974 C4.27286978,511.072279 1.86844481,506.04703 1.40283076,494.391815 C0.519511497,471.949223 -0.380276427,37.7528887 0.51202574,18.1698604 C0.922245193,9.25302485 2.25470984,6.35046002 8.96643906,4.33136947 C17.2696401,1.84122294 41.8199269,0.0899110991 77.4027216,0.0899110991" id="path462"></path>
                                    </g>
                                </g>
                            </g>
                            <path d="M47.3099807,60.7251745 C47.3099807,56.5853548 38.9753395,56.5853548 38.9753395,60.7251745 L38.9753395,552.122559 C38.9753395,556.262379 47.3099807,556.262379 47.3099807,552.122559 L47.3099807,60.7251745" id="path464" fill="#C7CFD9" fill-rule="nonzero"></path>
                            <path d="M45.2289404,63.6062389 C45.2289404,59.4879196 41.0563798,59.4879196 41.0563798,63.6062389 L41.0563798,549.241495 C41.0563798,553.359814 45.2289404,553.359814 45.2289404,549.241495 L45.2289404,63.6062389" id="path466" fill="#99A3AE" fill-rule="nonzero"></path>
                            <path d="M67.5634433,60.7251745 C67.5634433,56.5853548 59.227305,56.5853548 59.227305,60.7251745 L59.227305,552.122559 C59.227305,556.262379 67.5634433,556.262379 67.5634433,552.122559 L67.5634433,60.7251745" id="path468" fill="#C7CFD9" fill-rule="nonzero"></path>
                            <path d="M65.4809059,63.6062389 C65.4809059,59.4879196 61.3083452,59.4879196 61.3083452,63.6062389 L61.3083452,549.241495 C61.3083452,553.359814 65.4809059,553.359814 65.4809059,549.241495 L65.4809059,63.6062389" id="path470" fill="#99A3AE" fill-rule="nonzero"></path>
                            <path d="M87.8228946,60.7251745 C87.8228946,56.5853548 79.4867562,56.5853548 79.4867562,60.7251745 L79.4867562,552.122559 C79.4867562,556.262379 87.8228946,556.262379 87.8228946,552.122559 L87.8228946,60.7251745" id="path472" fill="#C7CFD9" fill-rule="nonzero"></path>
                            <path d="M85.7403571,63.6062389 C85.7403571,59.4879196 81.5603107,59.4879196 81.5603107,63.6062389 L81.5603107,549.241495 C81.5603107,553.359814 85.7403571,553.359814 85.7403571,549.241495 L85.7403571,63.6062389" id="path474" fill="#99A3AE" fill-rule="nonzero"></path>
                            <path d="M108.07486,60.7251745 C108.07486,56.5853548 99.7387217,56.5853548 99.7387217,60.7251745 L99.7387217,552.122559 C99.7387217,556.262379 108.07486,556.262379 108.07486,552.122559 L108.07486,60.7251745" id="path476" fill="#C7CFD9" fill-rule="nonzero"></path>
                            <path d="M105.992323,63.6062389 C105.992323,59.4879196 101.819762,59.4879196 101.819762,63.6062389 L101.819762,549.241495 C101.819762,553.359814 105.992323,553.359814 105.992323,549.241495 L105.992323,63.6062389" id="path478" fill="#99A3AE" fill-rule="nonzero"></path>
                            <path d="M128.325328,60.7251745 C128.325328,56.5853548 119.990687,56.5853548 119.990687,60.7251745 L119.990687,552.122559 C119.990687,556.262379 128.325328,556.262379 128.325328,552.122559 L128.325328,60.7251745" id="path480" fill="#C7CFD9" fill-rule="nonzero"></path>
                            <path d="M126.244288,63.6062389 C126.244288,59.4879196 122.071727,59.4879196 122.071727,63.6062389 L122.071727,549.241495 C122.071727,553.359814 126.244288,553.359814 126.244288,549.241495 L126.244288,63.6062389" id="path482" fill="#99A3AE" fill-rule="nonzero"></path>
                            <path d="M148.586277,60.7251745 C148.586277,56.5853548 140.242653,56.5853548 140.242653,60.7251745 L140.242653,552.122559 C140.242653,556.262379 148.586277,556.262379 148.586277,552.122559 L148.586277,60.7251745" id="path484" fill="#C7CFD9" fill-rule="nonzero"></path>
                            <path d="M146.496254,63.6062389 C146.496254,59.4879196 142.323693,59.4879196 142.323693,63.6062389 L142.323693,549.241495 C142.323693,553.359814 146.496254,553.359814 146.496254,549.241495 L146.496254,63.6062389" id="path486" fill="#99A3AE" fill-rule="nonzero"></path>
                            <path d="M168.829259,60.7251745 C168.829259,56.5853548 160.494618,56.5853548 160.494618,60.7251745 L160.494618,552.122559 C160.494618,556.262379 168.829259,556.262379 168.829259,552.122559 L168.829259,60.7251745" id="path488" fill="#C7CFD9" fill-rule="nonzero"></path>
                            <path d="M166.755705,63.6062389 C166.755705,59.4879196 162.575658,59.4879196 162.575658,63.6062389 L162.575658,549.241495 C162.575658,553.359814 166.755705,553.359814 166.755705,549.241495 L166.755705,63.6062389" id="path490" fill="#99A3AE" fill-rule="nonzero"></path>
                        </g>
                    </g>
                </g>
            </g>
            <rect id="blue" fill="#0099CC" style="mix-blend-mode: overlay;" x="11" y="211" width="189" height="555"></rect>
        </g>
    </g>
</svg>